<svg width="16" height="16" viewBox="0 0 16 16" fill="none" xmlns="http://www.w3.org/2000/svg" shape-rendering="crispEdges">
  <path d="M4.5 5.5L5.5 4.5L8 7L7 8L4.5 5.5Z" fill="currentColor"/>
  <path d="M8 7L9 8L11.5 5.5L10.5 4.5L8 7Z" fill="currentColor"/>
  <path d="M7 8L8 9L5.5 11.5L4.5 10.5L7 8Z" fill="currentColor"/>
  <path d="M8 9L9 8L11.5 10.5L10.5 11.5L8 9Z" fill="currentColor"/>
  <path d="M2.5 2.5L6.5 2.5L2.5 6.5V2.5Z" fill="currentColor"/>
  <path d="M13.5 2.5L9.5 2.5L13.5 6.5V2.5Z" fill="currentColor"/>
  <path d="M2.5 13.5L2.5 9.5L6.5 13.5H2.5Z" fill="currentColor"/>
  <path d="M13.5 13.5L9.5 13.5L13.5 9.5V13.5Z" fill="currentColor"/>
</svg>
